<svg viewBox="0 0 1200 330" fill="none" xmlns="http://www.w3.org/2000/svg">
<path d="M67.1746 106.592L143.01 151.814" stroke="#6F24E9" stroke-width="11.6239"/>
<path d="M99.5131 98.6724C100.05 96.0457 98.3551 93.4813 95.7282 92.9447C93.1013 92.4082 90.5369 94.1028 90.0005 96.7297L94.7568 97.7011L99.5131 98.6724ZM94.7568 97.7011L90.0005 96.7297C88.1594 105.744 87.9253 114.732 93.8953 126.353L98.2134 124.135L102.531 121.916C97.8176 112.741 97.9923 106.119 99.5131 98.6724L94.7568 97.7011Z" fill="#6F24E9"/>
<path d="M122.444 103.65C122.934 101.054 121.179 98.4623 118.527 97.8624C115.875 97.2624 113.329 98.8812 112.84 101.478L117.642 102.564L122.444 103.65ZM117.642 102.564L112.84 101.478C110.582 113.468 110.518 125.325 118.958 140.942L123.243 138.818L127.528 136.695C120.428 123.557 120.482 114.076 122.444 103.65L117.642 102.564Z" fill="#6F24E9"/>
<path d="M75.6289 138.038C73.5468 139.727 70.4897 139.408 68.8006 137.326C67.1115 135.245 67.4299 132.187 69.512 130.498L72.5705 134.268L75.6289 138.038ZM72.5705 134.268L69.512 130.498C76.6569 124.702 84.5207 120.343 97.5851 120.27L97.6121 125.125L97.639 129.979C87.3234 130.036 81.5308 133.25 75.6289 138.038L72.5705 134.268Z" fill="#6F24E9"/>
<path d="M90.8687 155.691C88.7916 157.323 85.6831 156.965 83.926 154.89C82.1689 152.814 82.4284 149.808 84.5056 148.175L87.6873 151.933L90.8687 155.691ZM87.6873 151.933L84.5056 148.175C94.0972 140.635 104.584 135.102 122.333 135.375L122.429 140.156L122.527 144.937C107.594 144.707 99.2088 149.134 90.8687 155.691L87.6873 151.933Z" fill="#6F24E9"/>
<path d="M55.8612 98.1765C55.0424 98.259 54.5296 99.1023 54.8317 99.8696L61.0062 115.557C61.3827 116.514 62.6884 116.627 63.2218 115.75L73.7877 98.3745C74.3213 97.4971 73.6223 96.3858 72.6017 96.4887L55.8612 98.1765Z" fill="#6F24E9"/>
<path d="M162.552 51.4203L163.233 139.712" stroke="#6F24E9" stroke-width="11.6239"/>
<path d="M186.101 74.9577C188.624 74.0535 189.937 71.2745 189.034 68.7504C188.13 66.2264 185.351 64.9132 182.826 65.8173L184.464 70.3875L186.101 74.9577ZM184.464 70.3875L182.826 65.8173C174.165 68.9198 166.36 73.3825 159.522 84.5149L163.658 87.0556L167.794 89.5964C173.194 80.8063 178.945 77.5204 186.101 74.9577L184.464 70.3875Z" fill="#6F24E9"/>
<path d="M193.739 97.1427C196.213 96.2137 197.519 93.37 196.655 90.7914C195.793 88.2127 193.088 86.8754 190.614 87.8045L192.177 92.4736L193.739 97.1427ZM192.177 92.4736L190.614 87.8045C179.193 92.0944 169.022 98.1908 160.051 113.508L164.088 116.07L168.126 118.632C175.674 105.746 183.808 100.873 193.739 97.1427L192.177 92.4736Z" fill="#6F24E9"/>
<path d="M140.054 74.9603C137.531 74.0566 136.217 71.2778 137.12 68.7536C138.024 66.2294 140.803 64.9158 143.326 65.8194L141.69 70.3899L140.054 74.9603ZM141.69 70.3899L143.326 65.8194C151.989 68.9205 159.795 73.3821 166.634 84.5134L162.498 87.0547L158.362 89.5962C152.962 80.807 147.21 77.522 140.054 74.9603L141.69 70.3899Z" fill="#6F24E9"/>
<path d="M132.871 97.1485C130.397 96.2199 129.091 93.3764 129.954 90.7976C130.817 88.2188 133.52 86.8811 135.995 87.8097L134.432 92.4792L132.871 97.1485ZM134.432 92.4792L135.995 87.8097C147.417 92.0979 157.588 98.1926 166.561 113.509L162.525 116.071L158.487 118.634C150.938 105.749 142.802 100.877 132.871 97.1485L134.432 92.4792Z" fill="#6F24E9"/>
<path d="M163.892 37.3568C163.396 36.6996 162.409 36.6987 161.91 37.3549L151.702 50.7721C151.08 51.5901 151.66 52.7652 152.687 52.7662L173.023 52.785C174.049 52.786 174.636 51.612 174.019 50.7928L163.892 37.3568Z" fill="#6F24E9"/>
<path d="M259.2 104.338L184.071 150.724" stroke="#6F24E9" stroke-width="11.6239"/>
<path d="M251.292 136.681C253.375 138.37 256.432 138.05 258.121 135.968C259.81 133.886 259.491 130.829 257.408 129.14L254.35 132.91L251.292 136.681ZM254.35 132.91L257.408 129.14C250.263 123.345 242.399 118.987 229.334 118.917L229.308 123.77L229.282 128.625C239.597 128.68 245.39 131.893 251.292 136.681L254.35 132.91Z" fill="#6F24E9"/>
<path d="M236.289 154.723C238.368 156.356 241.475 155.996 243.232 153.921C244.989 151.846 244.728 148.839 242.651 147.207L239.47 150.964L236.289 154.723ZM239.47 150.964L242.651 147.207C233.058 139.668 222.571 134.136 204.821 134.412L204.726 139.193L204.63 143.974C219.563 143.742 227.949 148.168 236.289 154.723L239.47 150.964Z" fill="#6F24E9"/>
<path d="M227.403 97.3202C226.866 94.6934 228.561 92.1287 231.187 91.5919C233.814 91.0549 236.378 92.7491 236.915 95.3758L232.159 96.3479L227.403 97.3202ZM232.159 96.3479L236.915 95.3758C238.758 104.39 238.993 113.378 233.025 124.999L228.707 122.782L224.388 120.564C229.101 111.388 228.925 104.766 227.403 97.3202L232.159 96.3479Z" fill="#6F24E9"/>
<path d="M204.709 102.685C204.22 100.089 205.973 97.4972 208.625 96.8969C211.277 96.2967 213.824 97.915 214.314 100.511L209.511 101.598L204.709 102.685ZM209.511 101.598L214.314 100.511C216.574 112.501 216.639 124.357 208.2 139.975L203.915 137.854L199.63 135.731C206.729 122.592 206.674 113.111 204.709 102.685L209.511 101.598Z" fill="#6F24E9"/>
<path d="M271.932 97.7519C272.236 96.9874 271.724 96.1432 270.905 96.0568L254.138 94.29C253.116 94.1823 252.413 95.288 252.944 96.1663L263.479 113.561C264.01 114.44 265.319 114.333 265.699 113.38L271.932 97.7519Z" fill="#6F24E9"/>
<path d="M260.131 221.598L184.277 176.409" stroke="#6F24E9" stroke-width="11.6239"/>
<path d="M251.712 189.384C253.766 187.662 256.829 187.933 258.551 189.988C260.271 192.043 260.002 195.106 257.946 196.826L254.829 193.105L251.712 189.384ZM254.829 193.105L257.946 196.826C250.894 202.735 243.098 207.217 230.036 207.495L229.933 202.641L229.831 197.787C240.144 197.568 245.885 194.264 251.712 189.384L254.829 193.105Z" fill="#6F24E9"/>
<path d="M236.424 171.585C238.475 169.919 241.589 170.229 243.379 172.276C245.168 174.324 244.955 177.334 242.904 178.999L239.665 175.292L236.424 171.585ZM239.665 175.292L242.904 178.999C233.433 186.689 223.034 192.387 205.282 192.391L205.111 187.613L204.939 182.834C219.873 182.83 228.188 178.271 236.424 171.585L239.665 175.292Z" fill="#6F24E9"/>
<path d="M228.449 229.123C227.953 231.757 229.688 234.295 232.324 234.79C234.959 235.285 237.496 233.551 237.991 230.916L233.219 230.019L228.449 229.123ZM233.219 230.019L237.991 230.916C239.69 221.873 239.783 212.882 233.632 201.357L229.349 203.643L225.066 205.928C229.923 215.03 229.853 221.653 228.449 229.123L233.219 230.019Z" fill="#6F24E9"/>
<path d="M205.671 224.113C205.222 226.717 207.017 229.281 209.679 229.839C212.339 230.396 214.86 228.738 215.308 226.135L210.49 225.123L205.671 224.113ZM210.49 225.123L215.308 226.135C217.378 214.11 217.256 202.254 208.571 186.772L204.32 188.962L200.069 191.152C207.374 204.176 207.471 213.658 205.671 224.113L210.49 225.123Z" fill="#6F24E9"/>
<path d="M272.956 227.425C273.273 228.185 272.775 229.037 271.957 229.135L255.22 231.167C254.2 231.292 253.479 230.197 253.997 229.311L264.254 211.751C264.772 210.865 266.081 210.95 266.476 211.897L272.956 227.425Z" fill="#6F24E9"/>
<path d="M164.334 276.045L163.615 187.753" stroke="#6F24E9" stroke-width="11.6239"/>
<path d="M187.505 252.135C190.044 252.999 191.401 255.757 190.536 258.295C189.672 260.833 186.915 262.191 184.377 261.326L185.942 256.731L187.505 252.135ZM185.942 256.731L184.377 261.326C175.667 258.362 167.792 254.023 160.778 243L164.875 240.395L168.97 237.788C174.508 246.492 180.311 249.686 187.505 252.135L185.942 256.731Z" fill="#6F24E9"/>
<path d="M194.792 229.832C197.28 230.722 198.631 233.544 197.808 236.136C196.986 238.728 194.303 240.108 191.815 239.218L193.303 234.525L194.792 229.832ZM193.303 234.525L191.815 239.218C180.326 235.11 170.061 229.176 160.847 214.002L164.844 211.377L168.841 208.751C176.592 221.516 184.802 226.26 194.792 229.832L193.303 234.525Z" fill="#6F24E9"/>
<path d="M141.466 252.862C138.956 253.806 137.686 256.605 138.63 259.114C139.574 261.625 142.373 262.894 144.882 261.95L143.173 257.406L141.466 252.862ZM143.173 257.406L144.882 261.95C153.494 258.712 161.228 254.127 167.89 242.889L163.715 240.413L159.539 237.938C154.279 246.812 148.579 250.187 141.466 252.862L143.173 257.406Z" fill="#6F24E9"/>
<path d="M133.93 230.792C131.472 231.76 130.211 234.623 131.114 237.188C132.018 239.752 134.743 241.048 137.202 240.079L135.566 235.436L133.93 230.792ZM135.566 235.436L137.202 240.079C148.555 235.611 158.628 229.356 167.357 213.9L163.281 211.401L159.203 208.903C151.858 221.906 143.802 226.906 133.93 230.792L135.566 235.436Z" fill="#6F24E9"/>
<path d="M165.723 290.083C165.237 290.748 164.25 290.764 163.741 290.116L153.321 276.862C152.686 276.054 153.247 274.871 154.274 274.853L174.607 274.512C175.634 274.494 176.24 275.659 175.635 276.488L165.723 290.083Z" fill="#6F24E9"/>
<path d="M68.092 222.388L143.201 175.97" stroke="#6F24E9" stroke-width="11.6239"/>
<path d="M100.554 229.795C101.132 232.412 99.478 235.003 96.8599 235.581C94.242 236.159 91.651 234.505 91.0729 231.888L95.8133 230.841L100.554 229.795ZM95.8133 230.841L91.0729 231.888C89.0892 222.904 88.7126 213.92 94.4976 202.206L98.8502 204.356L103.203 206.506C98.6352 215.754 98.9149 222.373 100.554 229.795L95.8133 230.841Z" fill="#6F24E9"/>
<path d="M123.4 224.454C123.93 227.043 122.217 229.661 119.576 230.304C116.933 230.945 114.361 229.367 113.831 226.778L118.616 225.617L123.4 224.454ZM118.616 225.617L113.831 226.778C111.383 214.825 111.131 202.972 119.324 187.223L123.642 189.277L127.959 191.332C121.068 204.581 121.272 214.061 123.4 224.454L118.616 225.617Z" fill="#6F24E9"/>
<path d="M76.0478 190.812C73.9393 189.155 70.8875 189.522 69.2316 191.631C67.5757 193.739 67.9427 196.792 70.0513 198.448L73.0496 194.629L76.0478 190.812ZM73.0496 194.629L70.0513 198.448C77.2871 204.13 85.2191 208.363 98.283 208.229L98.233 203.375L98.1829 198.52C87.8678 198.627 82.0249 195.506 76.0478 190.812L73.0496 194.629Z" fill="#6F24E9"/>
<path d="M91.0056 172.922C88.9027 171.322 85.8004 171.73 84.0764 173.833C82.3524 175.935 82.6595 178.937 84.7624 180.537L87.884 176.73L91.0056 172.922ZM87.884 176.73L84.7624 180.537C94.4724 187.925 105.045 193.292 122.788 192.736L122.809 187.954L122.829 183.173C107.903 183.639 99.4485 179.345 91.0056 172.922L87.884 176.73Z" fill="#6F24E9"/>
<path d="M56.9149 230.891C56.095 230.822 55.5689 229.986 55.8587 229.215L61.7837 213.43C62.145 212.468 63.4487 212.335 63.996 213.203L74.8361 230.409C75.3835 231.278 74.7022 232.399 73.6801 232.313L56.9149 230.891Z" fill="#6F24E9"/>
<path d="M140.938 149.939L164.334 137.28C164.534 137.172 164.778 137.176 164.974 137.295L187.81 151.044C188.006 151.163 188.126 151.377 188.121 151.608L187.661 179.226C187.657 179.459 187.527 179.672 187.322 179.783L163.942 192.434C163.741 192.543 163.497 192.537 163.301 192.419L139.393 177.987C139.188 177.864 139.069 177.637 139.083 177.399L140.601 150.471C140.613 150.247 140.741 150.046 140.938 149.939Z" stroke="#6F24E9" stroke-width="11.6535"/>
<path d="M397.374 146.129C398.393 146.42 400.212 147.076 402.833 148.095C405.453 148.968 408.364 150.278 411.567 152.025C414.915 153.626 418.336 155.592 421.83 157.921C425.324 160.25 428.599 162.943 431.656 166C434.713 169.057 437.261 172.551 439.299 176.481C441.337 180.412 442.574 184.706 443.011 189.365V191.767C443.011 197.881 441.773 203.849 439.299 209.672C436.97 215.349 433.694 220.299 429.473 224.521C424.814 229.179 419.282 232.818 412.877 235.439C406.618 237.913 399.921 239.151 392.788 239.151H391.041C381.87 238.86 373.572 236.312 366.148 231.508C358.869 226.704 353.338 220.226 349.553 212.074C348.97 210.909 348.679 209.381 348.679 207.489C348.679 205.45 349.189 203.558 350.208 201.811C351.227 199.919 352.755 198.536 354.793 197.662C356.104 196.934 357.632 196.571 359.379 196.571C361.417 196.571 363.382 197.153 365.275 198.317C367.167 199.336 368.55 200.865 369.423 202.903C371.462 207.27 374.446 210.764 378.376 213.384C382.307 215.859 386.82 217.169 391.915 217.315H393.006C401.595 217.315 408.51 214.694 413.751 209.454C418.846 204.359 421.393 198.463 421.393 191.767V190.893C421.102 187.982 419.792 185.216 417.463 182.595C415.134 179.83 412.368 177.428 409.165 175.39C406.108 173.206 402.833 171.386 399.339 169.931C395.991 168.329 393.225 167.165 391.041 166.437C390.896 166.437 390.677 166.364 390.386 166.218C390.095 166.073 389.804 166 389.513 166C367.822 158.139 356.977 144.528 356.977 125.167V123.42C357.268 117.888 358.578 112.793 360.907 108.135C363.237 103.476 366.73 99.473 371.389 96.1249C375.174 93.0678 379.614 90.7386 384.709 89.1373C389.804 87.3904 395.117 86.517 400.649 86.517H402.833C407.054 86.6626 411.421 87.6088 415.934 89.3557C420.447 91.1026 424.596 93.2862 428.381 95.9065C429.545 97.0711 430.564 98.454 431.438 100.055C432.311 101.511 432.748 102.967 432.748 104.423C432.748 107.188 431.947 109.372 430.346 110.973C428.162 113.885 425.251 115.341 421.612 115.341C420.593 115.341 419.501 115.195 418.336 114.904C417.172 114.467 416.08 113.885 415.061 113.157C413.314 111.847 411.203 110.755 408.728 109.882C406.399 109.008 404.143 108.499 401.959 108.353H400.431C394.317 108.353 389.149 109.882 384.927 112.939C380.851 115.85 378.74 119.635 378.595 124.293V125.167C378.595 128.369 379.104 131.062 380.123 133.246C381.142 135.43 382.525 137.322 384.272 138.923C386.019 140.379 387.984 141.689 390.168 142.854C392.497 143.873 394.826 144.892 397.155 145.911L397.374 146.129ZM539.205 137.832C542.117 137.832 544.664 138.923 546.848 141.107C549.032 143.291 550.123 145.911 550.123 148.968V228.669C550.123 230.999 549.468 233.109 548.158 235.002C546.848 236.894 545.101 238.205 542.917 238.932C541.753 239.369 540.443 239.587 538.987 239.587C537.677 239.587 536.221 239.224 534.62 238.496C533.164 237.622 531.927 236.676 530.908 235.657L483.96 179.32V228.669C483.96 231.581 482.868 234.128 480.685 236.312C478.501 238.496 475.881 239.587 472.824 239.587C469.912 239.587 467.365 238.496 465.181 236.312C462.998 234.128 461.906 231.581 461.906 228.669V148.968C461.906 146.639 462.488 144.528 463.653 142.636C464.963 140.743 466.71 139.36 468.893 138.487C469.476 138.196 470.131 138.05 470.859 138.05C471.586 137.904 472.314 137.832 473.042 137.832C474.498 137.832 475.954 138.268 477.409 139.142C478.865 140.015 480.175 140.889 481.34 141.762L528.287 197.881V148.968C528.287 145.911 529.379 143.291 531.563 141.107C533.746 138.923 536.294 137.832 539.205 137.832ZM619.187 137.832C626.174 137.832 632.725 139.215 638.839 141.98C645.099 144.601 650.485 148.24 654.998 152.898C659.656 157.557 663.295 163.016 665.916 169.275C668.682 175.39 670.064 181.94 670.064 188.928C670.064 195.915 668.682 202.539 665.916 208.799C663.295 214.913 659.656 220.299 654.998 224.957C650.485 229.47 645.099 233.037 638.839 235.657C632.725 238.277 626.174 239.587 619.187 239.587C612.199 239.587 605.575 238.277 599.316 235.657C593.202 233.037 587.815 229.47 583.157 224.957C578.644 220.299 575.005 214.913 572.239 208.799C569.619 202.539 568.309 195.915 568.309 188.928C568.309 181.94 569.619 175.39 572.239 169.275C575.005 163.016 578.644 157.557 583.157 152.898C587.815 148.24 593.202 144.601 599.316 141.98C605.575 139.215 612.199 137.832 619.187 137.832ZM619.187 217.533C623.263 217.533 627.048 216.805 630.541 215.349C634.035 213.894 637.092 211.856 639.712 209.235C642.333 206.615 644.371 203.558 645.826 200.064C647.282 196.571 648.01 192.858 648.01 188.928C648.01 184.852 647.282 181.067 645.826 177.573C644.371 174.079 642.333 171.022 639.712 168.402C637.092 165.782 634.035 163.744 630.541 162.288C627.048 160.687 623.263 159.886 619.187 159.886C615.256 159.886 611.544 160.687 608.05 162.288C604.556 163.744 601.499 165.782 598.879 168.402C596.259 171.022 594.148 174.079 592.547 177.573C591.091 181.067 590.363 184.852 590.363 188.928C590.363 192.858 591.091 196.571 592.547 200.064C594.148 203.558 596.259 206.615 598.879 209.235C601.499 211.856 604.556 213.894 608.05 215.349C611.544 216.805 615.256 217.533 619.187 217.533ZM805.62 138.487C807.949 139.36 809.696 140.816 810.861 142.854C812.171 144.746 812.826 146.784 812.826 148.968C812.826 150.278 812.68 151.516 812.389 152.68L784.439 232.382C783.711 234.42 782.401 236.166 780.509 237.622C778.616 238.932 776.433 239.587 773.958 239.587C771.629 239.587 769.518 238.932 767.625 237.622C765.733 236.166 764.35 234.42 763.477 232.382L746.008 182.377C744.843 185.871 743.46 189.801 741.859 194.169C740.403 198.39 738.875 202.757 737.273 207.27C735.818 211.637 734.289 216.005 732.688 220.372C731.232 224.739 729.849 228.742 728.539 232.382C727.811 234.42 726.428 236.166 724.39 237.622C722.498 238.932 720.387 239.587 718.058 239.587C715.583 239.587 713.399 238.932 711.507 237.622C709.614 236.166 708.304 234.42 707.576 232.382L679.626 152.68C679.335 151.516 679.19 150.278 679.19 148.968C679.19 146.639 679.772 144.528 680.936 142.636C682.247 140.743 684.066 139.36 686.395 138.487C687.56 138.196 688.87 138.05 690.326 138.05C692.655 138.05 694.766 138.705 696.658 140.015C698.551 141.18 699.861 142.927 700.589 145.256L718.058 195.042L735.308 145.256C736.036 142.781 737.346 140.961 739.239 139.797C741.131 138.632 743.242 137.977 745.571 137.832H746.444C748.483 137.977 750.448 138.851 752.34 140.452C754.233 141.908 755.616 143.509 756.489 145.256L773.958 195.042L791.427 145.256C792.155 142.927 793.465 141.18 795.357 140.015C797.395 138.705 799.506 138.05 801.69 138.05C803 138.05 804.31 138.341 805.62 138.923V138.487ZM878.875 146.129C879.894 146.42 881.713 147.076 884.334 148.095C886.954 148.968 889.866 150.278 893.068 152.025C896.416 153.626 899.837 155.592 903.331 157.921C906.825 160.25 910.1 162.943 913.157 166C916.214 169.057 918.762 172.551 920.8 176.481C922.838 180.412 924.075 184.706 924.512 189.365V191.767C924.512 197.881 923.275 203.849 920.8 209.672C918.471 215.349 915.195 220.299 910.974 224.521C906.315 229.179 900.784 232.818 894.378 235.439C888.119 237.913 881.422 239.151 874.289 239.151H872.542C863.371 238.86 855.074 236.312 847.649 231.508C840.371 226.704 834.839 220.226 831.054 212.074C830.472 210.909 830.18 209.381 830.18 207.489C830.18 205.45 830.69 203.558 831.709 201.811C832.728 199.919 834.257 198.536 836.295 197.662C837.605 196.934 839.133 196.571 840.88 196.571C842.918 196.571 844.883 197.153 846.776 198.317C848.668 199.336 850.051 200.865 850.925 202.903C852.963 207.27 855.947 210.764 859.877 213.384C863.808 215.859 868.321 217.169 873.416 217.315H874.508C883.096 217.315 890.011 214.694 895.252 209.454C900.347 204.359 902.894 198.463 902.894 191.767V190.893C902.603 187.982 901.293 185.216 898.964 182.595C896.635 179.83 893.869 177.428 890.666 175.39C887.609 173.206 884.334 171.386 880.84 169.931C877.492 168.329 874.726 167.165 872.542 166.437C872.397 166.437 872.178 166.364 871.887 166.218C871.596 166.073 871.305 166 871.014 166C849.323 158.139 838.478 144.528 838.478 125.167V123.42C838.769 117.888 840.079 112.793 842.409 108.135C844.738 103.476 848.232 99.473 852.89 96.1249C856.675 93.0678 861.115 90.7386 866.21 89.1373C871.305 87.3904 876.618 86.517 882.15 86.517H884.334C888.555 86.6626 892.923 87.6088 897.435 89.3557C901.948 91.1026 906.097 93.2862 909.882 95.9065C911.046 97.0711 912.066 98.454 912.939 100.055C913.812 101.511 914.249 102.967 914.249 104.423C914.249 107.188 913.448 109.372 911.847 110.973C909.664 113.885 906.752 115.341 903.113 115.341C902.094 115.341 901.002 115.195 899.837 114.904C898.673 114.467 897.581 113.885 896.562 113.157C894.815 111.847 892.704 110.755 890.229 109.882C887.9 109.008 885.644 108.499 883.46 108.353H881.932C875.818 108.353 870.65 109.882 866.428 112.939C862.352 115.85 860.241 119.635 860.096 124.293V125.167C860.096 128.369 860.605 131.062 861.624 133.246C862.643 135.43 864.026 137.322 865.773 138.923C867.52 140.379 869.485 141.689 871.669 142.854C873.998 143.873 876.327 144.892 878.656 145.911L878.875 146.129ZM1026.6 217.751C1029.51 217.751 1032.06 218.843 1034.24 221.027C1036.43 223.21 1037.52 225.831 1037.52 228.888C1037.52 231.799 1036.43 234.347 1034.24 236.53C1032.06 238.568 1029.51 239.587 1026.6 239.587H954.543C951.486 239.587 948.866 238.568 946.682 236.53C944.644 234.347 943.625 231.799 943.625 228.888V97.435C943.625 94.5235 944.644 92.0488 946.682 90.0108C948.866 87.8272 951.486 86.7354 954.543 86.7354H1026.6C1029.51 86.7354 1032.06 87.8272 1034.24 90.0108C1036.43 92.0488 1037.52 94.5235 1037.52 97.435C1037.52 100.492 1036.43 103.112 1034.24 105.296C1032.06 107.48 1029.51 108.571 1026.6 108.571H965.461V152.462H1013.5C1016.41 152.462 1018.89 153.554 1020.92 155.737C1023.11 157.775 1024.2 160.25 1024.2 163.161C1024.2 166.073 1023.11 168.62 1020.92 170.804C1018.89 172.842 1016.41 173.861 1013.5 173.861H965.461V217.751H1026.6ZM1118.48 239.587C1108.44 239.587 1098.98 237.622 1090.1 233.692C1081.22 229.616 1073.43 224.157 1066.73 217.315C1060.18 210.327 1054.94 202.175 1051.01 192.858C1047.22 183.542 1045.33 173.643 1045.33 163.161C1045.33 152.68 1047.22 142.854 1051.01 133.683C1054.94 124.366 1060.18 116.214 1066.73 109.226C1073.43 102.239 1081.22 96.7799 1090.1 92.8494C1098.98 88.7734 1108.44 86.7354 1118.48 86.7354C1128.53 86.7354 1137.99 88.7734 1146.87 92.8494C1155.75 96.7799 1163.46 102.239 1170.02 109.226C1176.71 116.214 1181.95 124.366 1185.74 133.683C1189.67 142.854 1191.63 152.68 1191.63 163.161C1191.63 173.643 1189.67 183.542 1185.74 192.858C1181.95 202.175 1176.71 210.327 1170.02 217.315C1163.46 224.157 1155.75 229.616 1146.87 233.692C1137.99 237.622 1128.53 239.587 1118.48 239.587ZM1118.48 108.571C1111.35 108.571 1104.65 110.027 1098.39 112.939C1092.28 115.704 1086.89 119.562 1082.23 124.512C1077.58 129.461 1073.86 135.284 1071.1 141.98C1068.48 148.531 1067.17 155.592 1067.17 163.161C1067.17 170.731 1068.48 177.864 1071.1 184.561C1073.86 191.112 1077.58 196.862 1082.23 201.811C1086.89 206.761 1092.28 210.691 1098.39 213.603C1104.65 216.369 1111.35 217.751 1118.48 217.751C1125.62 217.751 1132.24 216.369 1138.35 213.603C1144.61 210.691 1150.07 206.761 1154.73 201.811C1159.39 196.862 1163.03 191.112 1165.65 184.561C1168.41 177.864 1169.8 170.731 1169.8 163.161C1169.8 155.592 1168.41 148.531 1165.65 141.98C1163.03 135.284 1159.39 129.461 1154.73 124.512C1150.07 119.562 1144.61 115.704 1138.35 112.939C1132.24 110.027 1125.62 108.571 1118.48 108.571Z" fill="#6F24E9"/>
</svg>
