<svg xmlns="http://www.w3.org/2000/svg" version="1.1" width="840" height="262">
    <path d="M0 0 C8.69163006 7.71008755 13.14490087 16.89394432 14.22265625 28.37109375 C14.64705043 39.90354435 11.2436751 50.02540655 4 59 C-2.73007826 65.71611544 -11.11233981 69.18417403 -20.5625 69.4375 C-29.02193816 69.14854393 -34.47069789 67.31848169 -41 62 C-41.02505615 63.02472412 -41.0501123 64.04944824 -41.07592773 65.10522461 C-41.16984484 68.89409676 -41.27010317 72.68277881 -41.37231445 76.47143555 C-41.41572297 78.11364303 -41.45739358 79.75589739 -41.49731445 81.39819336 C-41.5548744 83.75388745 -41.61860892 86.10934428 -41.68359375 88.46484375 C-41.70866249 89.57266457 -41.70866249 89.57266457 -41.73423767 90.7028656 C-41.88612829 95.88612829 -41.88612829 95.88612829 -43 97 C-48.61 97 -54.22 97 -60 97 C-60 63.34 -60 29.68 -60 -5 C-54.39 -5 -48.78 -5 -43 -5 C-42.34 -3.35 -41.68 -1.7 -41 0 C-40.5153125 -0.33773437 -40.030625 -0.67546875 -39.53125 -1.0234375 C-26.76996544 -9.51459992 -12.64739523 -8.64871948 0 0 Z M-39.875 17.0625 C-43.59522645 22.95180763 -44.64765142 30.01356041 -43.375 36.8125 C-41.94960016 41.95313555 -39.20005286 46.63995771 -35 50 C-28.58262778 53.05106644 -21.3538322 53.05583606 -14.625 50.9375 C-9.59434454 47.22439716 -5.93848019 43.00217489 -4 37 C-3.12848553 29.65293034 -3.43441364 23.03609731 -8 17 C-11.50353653 13.33721181 -15.41705741 10.34492712 -20.515625 9.6640625 C-28.47529099 9.55035299 -34.61737158 10.70443772 -39.875 17.0625 Z " fill="#070709" transform="translate(709,111)"/>
    <path d="M0 0 C8.67817735 7.43616297 12.59651032 17.33058774 13.83984375 28.484375 C14.34206719 39.50879197 11.02283105 49.29470477 4.40234375 58.1328125 C-1.24768253 64.30376319 -9.32101987 68.57263825 -17.69921875 69.203125 C-27.77294256 69.3611442 -33.59239913 67.60506725 -42 62 C-42.33 73.55 -42.66 85.1 -43 97 C-48.61 97 -54.22 97 -60 97 C-60 63.34 -60 29.68 -60 -5 C-54.39 -5 -48.78 -5 -43 -5 C-42.67 -3.02 -42.34 -1.04 -42 1 C-41.443125 0.59007813 -40.88625 0.18015625 -40.3125 -0.2421875 C-27.3317457 -9.40765253 -13.36734014 -9.00970502 0 0 Z M-39.875 17.3125 C-44.23157366 24.27418696 -44.76257396 31.08547435 -43 39 C-40.78638 44.12807721 -37.69263635 47.91273924 -33 51 C-27.15219658 52.94926781 -20.47788508 52.78007493 -14.625 50.9375 C-9.34602898 47.04111663 -5.31463083 42.57315414 -4 36 C-3.21564863 28.35613939 -4.61809235 21.89395052 -9.25 15.6875 C-13.66336941 11.37443444 -17.85242164 9.85182121 -23.9375 9.5625 C-30.64560394 9.80717248 -35.72726168 11.94341599 -39.875 17.3125 Z " fill="#08080A" transform="translate(792,111)"/>
    <path d="M0 0 C0.33 -1.65 0.66 -3.3 1 -5 C6.61 -5 12.22 -5 18 -5 C18 18.76 18 42.52 18 67 C12.39 67 6.78 67 1 67 C0.67 65.35 0.34 63.7 0 62 C-0.76183594 62.50660156 -0.76183594 62.50660156 -1.5390625 63.0234375 C-2.22742188 63.46945313 -2.91578125 63.91546875 -3.625 64.375 C-4.29789062 64.81585938 -4.97078125 65.25671875 -5.6640625 65.7109375 C-13.58368891 70.0812999 -23.10758184 70.39808303 -31.75 67.9375 C-41.62995371 64.03990358 -47.55506909 56.75034748 -52.25390625 47.54296875 C-56.35291308 38.0167055 -56.62716497 26.83848226 -53.375 17 C-49.4819062 7.90703965 -42.53172578 -0.6908008 -33.375 -4.875 C-21.19078419 -8.93640527 -10.59035975 -6.93997523 0 0 Z M-34 18 C-37.50770356 23.5121056 -38.64816392 29.16310107 -37.5625 35.58984375 C-35.7557313 42.41655504 -33.20468193 46.65511078 -27.4375 50.875 C-20.99668564 52.98290288 -13.87867289 53.19665826 -7.5625 50.5 C-2.42266422 47.51247045 0.16916612 42.49250164 2 37 C2.63422426 29.45029199 2.42141667 22.41441403 -2.359375 16.24609375 C-5.96089837 12.3939489 -9.32538157 10.29977528 -14.68359375 9.69921875 C-23.26189343 9.66271535 -28.25050093 11.31814973 -34 18 Z " fill="#070709" transform="translate(467,111)"/>
    <path d="M0 0 C0.66 -1.65 1.32 -3.3 2 -5 C7.28 -5 12.56 -5 18 -5 C18.95704986 -1.17180055 19.12078914 1.77386172 19.11352539 5.69628906 C19.11367142 6.36011597 19.11381744 7.02394287 19.1139679 7.70788574 C19.11327332 9.8938325 19.10550231 12.07969319 19.09765625 14.265625 C19.09579045 15.78448439 19.09436731 17.30334438 19.09336853 18.82220459 C19.0895561 22.81377839 19.0797367 26.80531562 19.06866455 30.796875 C19.05842303 34.8723908 19.05386504 38.94791253 19.04882812 43.0234375 C19.03811327 51.01564362 19.0205268 59.00781305 19 67 C13.06 67 7.12 67 1 67 C0.67 65.35 0.34 63.7 0 62 C-1.010625 62.78375 -2.02125 63.5675 -3.0625 64.375 C-10.10252051 69.32545267 -17.61014034 69.82953556 -26 69 C-34.99458455 66.97833698 -42.57884408 62.69673031 -48.04296875 55.1953125 C-54.42675603 44.84962837 -56.76481094 34.43070846 -54.5 22.328125 C-51.38068518 10.91426851 -45.31231302 1.98738781 -35.0078125 -4.1953125 C-22.99567478 -9.69420221 -10.51231494 -7.00820996 0 0 Z M-33.703125 18.0859375 C-37.69553255 23.97834623 -37.83104269 30.1032024 -37 37 C-35.40099464 42.03034735 -33.28906668 46.48368849 -28.875 49.5625 C-22.1750793 52.91246035 -15.37047301 52.88405849 -8.1875 51 C-3.21333977 47.87895829 0.14016889 43.57949332 2 38 C2.61486532 30.06722942 3.08216386 22.53421067 -2 16 C-6.55661235 11.56022386 -11.09995043 9.7144683 -17.4375 9.6875 C-25.03557191 9.87083149 -28.89903754 12.42951194 -33.703125 18.0859375 Z " fill="#080809" transform="translate(617,111)"/>
    <path d="M0 0 C6.27 0 12.54 0 19 0 C19.86882812 2.09859375 20.73765625 4.1971875 21.6328125 6.359375 C22.49571507 8.43516367 23.36009471 10.51033151 24.22460938 12.58544922 C24.81566696 14.00635935 25.40523461 15.42789035 25.99316406 16.85009766 C29.67484115 25.75271955 33.54281316 34.45146929 38 43 C38.33209473 42.2251123 38.66418945 41.45022461 39.00634766 40.65185547 C42.10668945 33.41772461 42.10668945 33.41772461 45.20703125 26.18359375 C45.46780457 25.57501526 45.72857788 24.96643677 45.99725342 24.3394165 C46.52595131 23.10600543 47.05496437 21.8727294 47.58428955 20.6395874 C48.96437415 17.42332337 50.33821498 14.20459532 51.70214844 10.98144531 C51.97634613 10.33563507 52.25054382 9.68982483 52.53305054 9.02444458 C53.29495211 7.22937564 54.05452493 5.43331881 54.81396484 3.63720703 C56 1 56 1 57 0 C58.34267413 -0.08631874 59.68974322 -0.10706473 61.03515625 -0.09765625 C61.84404297 -0.09443359 62.65292969 -0.09121094 63.48632812 -0.08789062 C64.33646484 -0.07951172 65.18660156 -0.07113281 66.0625 -0.0625 C66.91650391 -0.05798828 67.77050781 -0.05347656 68.65039062 -0.04882812 C70.76695663 -0.03700373 72.88348685 -0.01906769 75 0 C73.16191407 5.91473461 70.9830678 11.44726207 68.25 17 C63.77345085 26.26927146 59.49910534 35.62503109 55.25 45 C54.92825806 45.70946777 54.60651611 46.41893555 54.27502441 47.14990234 C52.74027556 50.53437081 51.20654663 53.9192991 49.67382812 57.3046875 C47.45465601 62.20559819 45.22751178 67.10287487 43 72 C39.37 72 35.74 72 32 72 C26.23725499 60.94458283 21.08034555 49.63843719 16.02001953 38.24780273 C15.46135932 36.99067986 14.90260272 35.73359981 14.34375 34.4765625 C14.06707489 33.85417191 13.79039978 33.23178131 13.50534058 32.5905304 C11.61205991 28.34301709 9.67729179 24.11638141 7.71875 19.8984375 C7.20739502 18.79628906 6.69604004 17.69414063 6.16918945 16.55859375 C5.20099592 14.47830973 4.2283629 12.40008459 3.25073242 10.32421875 C2.60648315 8.93783203 2.60648315 8.93783203 1.94921875 7.5234375 C1.57112061 6.71825684 1.19302246 5.91307617 0.8034668 5.08349609 C0 3 0 3 0 0 Z " fill="#080809" transform="translate(250,106)"/>
    <path d="M0 0 C5.61 0 11.22 0 17 0 C17 35.64 17 71.28 17 108 C11.39 108 5.78 108 0 108 C0 72.36 0 36.72 0 0 Z " fill="#08080A" transform="translate(499,70)"/>
    <path d="M0 0 C1.58203125 1.66796875 1.58203125 1.66796875 1.58203125 5.66796875 C-0.24609375 8.0625 -0.24609375 8.0625 -2.66796875 10.48046875 C-3.456875 11.29128906 -4.24578125 12.10210937 -5.05859375 12.9375 C-7.41796875 14.66796875 -7.41796875 14.66796875 -9.58984375 14.4921875 C-10.87844933 13.91121361 -12.15367922 13.30011351 -13.41796875 12.66796875 C-18.59558143 12.15189951 -23.07162336 12.11500546 -27.91796875 14.10546875 C-33.66913025 20.00040929 -33.87356406 28.09995626 -33.9296875 35.953125 C-33.9476387 36.8948204 -33.9655899 37.83651581 -33.98408508 38.80674744 C-34.03777974 41.78127717 -34.07195171 44.75565028 -34.10546875 47.73046875 C-34.13867794 49.76108932 -34.17317088 51.79168932 -34.20898438 53.82226562 C-34.29348231 58.77071953 -34.36048689 63.71913029 -34.41796875 68.66796875 C-40.02796875 68.66796875 -45.63796875 68.66796875 -51.41796875 68.66796875 C-51.41796875 44.90796875 -51.41796875 21.14796875 -51.41796875 -3.33203125 C-45.80796875 -3.33203125 -40.19796875 -3.33203125 -34.41796875 -3.33203125 C-34.08796875 -1.68203125 -33.75796875 -0.03203125 -33.41796875 1.66796875 C-32.67546875 1.04921875 -31.93296875 0.43046875 -31.16796875 -0.20703125 C-21.53059322 -7.65409416 -9.77403562 -6.65866875 0 0 Z " fill="#070709" transform="translate(412.41796875,109.33203125)"/>
    <path d="M0 0 C3.62365347 3.99851417 3.44730059 8.25868181 3.28125 13.40625 C2.92171053 16.72200287 2.29410204 18.55295783 0 21 C-4.52162441 23.74080002 -7.47400283 24.31760393 -12.7109375 23.8359375 C-13.3530014 23.77965179 -13.99506531 23.72336609 -14.65658569 23.66537476 C-16.77451134 23.46887205 -18.8865471 23.23974308 -21 23 C-22.10486755 22.87558533 -22.10486755 22.87558533 -23.23205566 22.74865723 C-27.90893854 22.20777275 -32.5744168 21.59966694 -37.23779297 20.953125 C-39.65576921 20.62077073 -42.07569435 20.30634824 -44.49609375 19.9921875 C-46.05223146 19.77972796 -47.60822721 19.56622547 -49.1640625 19.3515625 C-50.23595322 19.21544052 -50.23595322 19.21544052 -51.32949829 19.0765686 C-55.51250758 18.4749119 -58.59393869 17.53147784 -62 15 C-63.43735246 12.12529507 -63.38172649 10.18105412 -63 7 C-58.54839678 1.78836696 -52.21129528 1.72201371 -45.8125 0.875 C-44.07432007 0.6279834 -44.07432007 0.6279834 -42.30102539 0.37597656 C-38.8697716 -0.10371979 -35.43624001 -0.55757005 -32 -1 C-31.06575195 -1.12149414 -30.13150391 -1.24298828 -29.16894531 -1.36816406 C-26.75978753 -1.6751507 -24.34975685 -1.96848703 -21.9375 -2.25 C-21.25598877 -2.33008301 -20.57447754 -2.41016602 -19.87231445 -2.49267578 C-4.80907763 -4.10186033 -4.80907763 -4.10186033 0 0 Z " fill="#FE7039" transform="translate(199,120)"/>
    <path d="M0 0 C0.85850555 0.1038652 1.71701111 0.20773041 2.60153198 0.31474304 C4.40186289 0.53467384 6.20184063 0.75751383 8.00146484 0.9831543 C10.74057943 1.32401864 13.48138243 1.64772427 16.22265625 1.97070312 C17.98189995 2.18775813 19.74101944 2.4058228 21.5 2.625 C22.31058868 2.71888504 23.12117737 2.81277008 23.95632935 2.90950012 C28.99308043 3.56175949 33.10027078 4.64497567 37.6171875 7.01171875 C39.6171875 10.01171875 39.6171875 10.01171875 39.3671875 13.57421875 C38.6171875 17.01171875 38.6171875 17.01171875 36.6171875 19.01171875 C34.55200195 19.55834961 34.55200195 19.55834961 31.98046875 19.9765625 C31.02132568 20.13543945 30.06218262 20.29431641 29.07397461 20.45800781 C28.03635986 20.62010742 26.99874512 20.78220703 25.9296875 20.94921875 C24.86564697 21.1203418 23.80160645 21.29146484 22.70532227 21.46777344 C15.1682882 22.66019807 7.61816829 23.7511583 0.0546875 24.76171875 C-1.36106567 24.95302368 -1.36106567 24.95302368 -2.80541992 25.14819336 C-17.31186215 27.01302693 -17.31186215 27.01302693 -23.3828125 23.01171875 C-27.02637584 19.12525119 -26.88210576 14.75758051 -26.73828125 9.67578125 C-26.23821448 5.92802806 -24.9286388 3.76969724 -22.3828125 1.01171875 C-15.84749844 -2.95266934 -7.24058287 -0.89735419 0 0 Z " fill="#FE7139" transform="translate(48.3828125,117.98828125)"/>
    <path d="M0 0 C2.69924999 1.79949999 3.97268929 2.98831891 5.625 5.75 C6.99344145 15.86914699 5.01332723 26.66429063 3.65356445 36.71191406 C3.30949244 39.27238125 2.98705575 41.83499184 2.66601562 44.3984375 C2.44920051 46.04704435 2.23114667 47.69548888 2.01171875 49.34375 C1.91783371 50.10006714 1.82394867 50.85638428 1.72721863 51.63562012 C1.09337 56.17414888 0.04108984 59.76523478 -2.375 63.75 C-5.4582635 65.29163175 -7.98378099 65.04747535 -11.375 64.75 C-15.22166785 61.31318029 -15.3272904 56.46613107 -15.98046875 51.62890625 C-16.10940018 50.73316391 -16.2383316 49.83742157 -16.37117004 48.91453552 C-16.64146628 47.01650682 -16.90586639 45.11763044 -17.16479492 43.21801758 C-17.55711089 40.35187129 -17.97132834 37.48954926 -18.38867188 34.62695312 C-22.01941843 9.12762749 -22.01941843 9.12762749 -19.36669922 3.67895508 C-14.53713333 -2.53836515 -6.89205685 -2.55261365 0 0 Z " fill="#FE723B" transform="translate(119.375,41.25)"/>
    <path d="M0 0 C2.90652991 2.90652991 2.876536 6.26706827 3.4375 10.1875 C3.62372925 11.43889771 3.62372925 11.43889771 3.8137207 12.71557617 C4.21906167 15.47570672 4.60956571 18.23772456 5 21 C5.14115234 21.96454102 5.28230469 22.92908203 5.42773438 23.92285156 C9.97022281 55.07281183 9.97022281 55.07281183 5.8125 61.25 C0.715773 64.4212968 -2.9058144 65.63043299 -9 65 C-12.29013805 63.71053175 -15.20895719 62.21495778 -17.18669128 59.17736816 C-19.85591311 52.03139945 -17.79685661 42.79141254 -16.79296875 35.40625 C-16.60387688 33.9753302 -16.60387688 33.9753302 -16.41096497 32.51550293 C-16.14485659 30.52187219 -15.87493824 28.52874651 -15.60131836 26.53613281 C-15.18498991 23.48158379 -14.79028617 20.42471259 -14.39648438 17.3671875 C-14.134117 15.42169863 -13.87049062 13.47637904 -13.60546875 11.53125 C-13.48970993 10.61879517 -13.37395111 9.70634033 -13.25468445 8.76623535 C-13.13478653 7.92105347 -13.01488861 7.07587158 -12.89135742 6.20507812 C-12.7914299 5.46326294 -12.69150238 4.72144775 -12.58854675 3.95715332 C-11.8654499 1.55256711 -10.95241701 0.55505439 -9 -1 C-5.19825711 -2.26724763 -3.6488868 -1.4750819 0 0 Z " fill="#FE723B" transform="translate(117,156)"/>
    <path d="M0 0 C5.94 0 11.88 0 18 0 C18 23.76 18 47.52 18 72 C12.06 72 6.12 72 0 72 C0 48.24 0 24.48 0 0 Z " fill="#070708" transform="translate(330,106)"/>
    <path d="M0 0 C5.04330987 4.1028907 7.71774978 9.39439884 10.75 15.0625 C11.24371094 15.96033203 11.73742187 16.85816406 12.24609375 17.78320312 C17.43420605 27.34212236 17.43420605 27.34212236 16.3125 31.625 C15 34 15 34 13.3125 35.375 C7.93375248 36.82871554 3.75347415 35.06129862 -0.91796875 32.453125 C-2.68187675 31.39768267 -4.43827823 30.32960785 -6.1875 29.25 C-7.07630859 28.7240625 -7.96511719 28.198125 -8.88085938 27.65625 C-13.35431143 24.94058564 -17.21257396 22.56892147 -20 18 C-20.61105403 13.79900352 -20.33783835 11.64968914 -18.375 7.875 C-13.06220859 1.44372619 -8.6335148 -2.08395185 0 0 Z " fill="#FE713A" transform="translate(63,62)"/>
    <path d="M0 0 C6.03297915 0.33114122 9.30476624 2.08342832 13.6171875 6.29296875 C16.38968616 9.47219093 17.04213903 11.96541114 17.65234375 16.0625 C17.06814734 20.15187485 15.13009417 22.36369578 12.21484375 25.125 C9.21149624 27.28908872 6.06168268 29.11960481 2.83984375 30.9375 C2.01484375 31.42669922 1.18984375 31.91589844 0.33984375 32.41992188 C-4.43543981 35.16002506 -8.25324942 36.89804998 -13.78515625 37.125 C-16.58087127 36.16857118 -17.46165114 35.77201022 -18.78515625 33.125 C-19.67120353 26.26932103 -16.95954186 21.84338012 -13.59765625 16 C-13.11490234 15.11957031 -12.63214844 14.23914063 -12.13476562 13.33203125 C-9.4652036 8.58056917 -6.87140939 4.73948324 -2.78515625 1.125 C-1.78515625 0.125 -1.78515625 0.125 0 0 Z " fill="#FE713A" transform="translate(163.78515625,60.875)"/>
    <path d="M0 0 C2.78888858 1.43213197 3.75957557 2.28489145 4.76171875 5.265625 C5.06866999 8.7880163 4.15658074 10.4564111 2.5 13.5625 C1.94570312 14.60535156 1.39140625 15.64820313 0.8203125 16.72265625 C0.21960938 17.80417969 -0.38109375 18.88570312 -1 20 C-1.60070312 21.09183594 -2.20140625 22.18367188 -2.8203125 23.30859375 C-8.27249431 32.95022261 -8.27249431 32.95022261 -12 36 C-16.40910476 37.09025136 -20.18006761 36.37843033 -24.25 34.5 C-28.79178106 30.37110812 -31.58989016 26.41964808 -32.625 20.3125 C-31.84891159 16.19923141 -30.15611216 14.52356363 -27 12 C-23.60919652 9.73474885 -20.10610667 7.70297221 -16.5625 5.6875 C-15.63373047 5.13771484 -14.70496094 4.58792969 -13.74804688 4.02148438 C-5.16887017 -0.89398698 -5.16887017 -0.89398698 0 0 Z " fill="#FE713A" transform="translate(75,163)"/>
    <path d="M0 0 C2.54541016 1.03808594 2.54541016 1.03808594 5.0390625 2.484375 C5.94914063 3.00773438 6.85921875 3.53109375 7.796875 4.0703125 C9.19679687 4.90175781 9.19679687 4.90175781 10.625 5.75 C11.56601563 6.28882813 12.50703125 6.82765625 13.4765625 7.3828125 C23.65542022 13.31084043 23.65542022 13.31084043 26 18 C26.23675113 23.05412198 25.48527501 26.97865449 22.25 30.9375 C18.41837476 34.85992204 15.48689762 35.78758605 10.0625 36.5625 C7.57335027 36.49114109 6.40429881 36.33826832 4.47973633 34.72802734 C0.68248769 30.09704219 -2.45567147 25.28818627 -5.375 20.0625 C-5.82488281 19.30259766 -6.27476562 18.54269531 -6.73828125 17.75976562 C-9.65990878 12.56033427 -10.65491643 8.96628872 -10 3 C-7.14254571 -0.51686681 -4.31419574 -0.2967049 0 0 Z " fill="#FE713A" transform="translate(155,163)"/>
    <path d="M0 0 C3.53733123 2.55892046 4.75963588 4.1887711 6 8.375 C6 12.7289874 5.17207574 15.23506872 3 19 C0.12121032 21.47895778 -1.66317695 21.95713161 -5.4375 22.4375 C-9.70968693 21.91284546 -11.75031771 20.79623825 -15 18 C-17.10863429 14.35781349 -17.50962203 11.16191328 -17 7 C-15.27978264 3.68698879 -13.9086019 1.58049566 -10.75 -0.4375 C-6.93940558 -1.21693977 -3.72934532 -1.15270673 0 0 Z " fill="#060608" transform="translate(548,158)"/>
    <path d="M0 0 C2.66915647 2.14834545 3.77943987 3.55633371 4.30078125 6.96875 C4.43294773 10.69723583 4.46252586 14.10920878 2 17 C-2.01955829 19.36444606 -4.10903676 20.14849387 -8.75 19.375 C-12.50920399 17.78456754 -14.19878159 16.60243682 -16 13 C-16.4128469 8.70639223 -16.2493583 6.46432234 -14.1875 2.625 C-10.27705848 -2.06752982 -5.52304925 -1.42562463 0 0 Z " fill="#060608" transform="translate(345,74)"/>
    <path d="M0 0 C5.61 0 11.22 0 17 0 C19 5 19 5 19 8 C18.01 8 17.02 8 16 8 C16 5.69 16 3.38 16 1 C11.05 1 6.1 1 1 1 C1 34 1 67 1 101 C5.62 101 10.24 101 15 101 C15 101.33 15 101.66 15 102 C10.05 102 5.1 102 0 102 C0 68.34 0 34.68 0 0 Z " fill="#000000" transform="translate(649,106)"/>
    <path d="M0 0 C1.48831242 0.00667405 2.97660807 0.01863442 4.46484375 0.03515625 C5.22345703 0.03966797 5.98207031 0.04417969 6.76367188 0.04882812 C8.64326246 0.06064945 10.52281274 0.07858547 12.40234375 0.09765625 C13.52283021 3.69273097 13.52281589 7.0427002 13.51586914 10.79394531 C13.51601517 11.45777222 13.51616119 12.12159912 13.51631165 12.80554199 C13.51561707 14.99148875 13.50784606 17.17734944 13.5 19.36328125 C13.4981342 20.88214064 13.49671106 22.40100063 13.49571228 23.91986084 C13.49189985 27.91143464 13.48208045 31.90297187 13.4710083 35.89453125 C13.46076678 39.97004705 13.45620879 44.04556878 13.45117188 48.12109375 C13.44045702 56.11329987 13.42287055 64.1054693 13.40234375 72.09765625 C7.46234375 72.09765625 1.52234375 72.09765625 -4.59765625 72.09765625 C-4.92765625 69.78765625 -5.25765625 67.47765625 -5.59765625 65.09765625 C-4.11265625 64.60265625 -4.11265625 64.60265625 -2.59765625 64.09765625 C-2.59765625 66.40765625 -2.59765625 68.71765625 -2.59765625 71.09765625 C2.02234375 71.09765625 6.64234375 71.09765625 11.40234375 71.09765625 C11.40234375 47.99765625 11.40234375 24.89765625 11.40234375 1.09765625 C6.78234375 1.09765625 2.16234375 1.09765625 -2.59765625 1.09765625 C-2.59765625 3.40765625 -2.59765625 5.71765625 -2.59765625 8.09765625 C-3.25765625 8.09765625 -3.91765625 8.09765625 -4.59765625 8.09765625 C-4.64007348 5.7647085 -4.63858562 3.43063058 -4.59765625 1.09765625 C-3.59765625 0.09765625 -3.59765625 0.09765625 0 0 Z " fill="#000000" transform="translate(622.59765625,105.90234375)"/>
    <path d="M0 0 C0.66 0.66 1.32 1.32 2 2 C0.3603125 1.9071875 0.3603125 1.9071875 -1.3125 1.8125 C-4.8362826 1.70189764 -4.8362826 1.70189764 -6.875 3.125 C-8.40430823 5.67384706 -8.67470941 8.07238473 -9 11 C-9.33 11 -9.66 11 -10 11 C-10.48541424 3.59743291 -10.48541424 3.59743291 -8.375 1 C-5.38358852 -0.25954167 -3.21567216 -0.34952958 0 0 Z " fill="#FE5D28" transform="translate(155,163)"/>
    <path d="M0 0 C0.99 0.33 1.98 0.66 3 1 C2.38125 1.598125 1.7625 2.19625 1.125 2.8125 C-1.13676954 5.00811144 -1.13676954 5.00811144 -3 8 C-3.36923077 3.44615385 -3.36923077 3.44615385 -1.5 1.1875 C-1.005 0.795625 -0.51 0.40375 0 0 Z " fill="#FE6B2D" transform="translate(139,124)"/>
</svg>